# xmcd CD database file
#
# Track frame offsets:
#	150
#	21900
#	43805
#
# Disc length: 871 seconds
#
# Revision: 0
# Processed by: cddbd v1.5.1PL2 Copyright (c) Steve Scherf et al.
# Submitted via: CDex 1.51
#
DISCID=20036503
DTITLE=松たか子 - 明かりの灯る方へ
DYEAR=1900
DGENRE=JPop
TTITLE0=明かりの灯る方へ
TTITLE1=山手駅
TTITLE2=明かりの灯る方へ（インストゥルメンタル）
EXTD=
EXTT0=
EXTT1=
EXTT2=
PLAYORDER=
